Coordinates
version=1
nRows=36
nColumns=30
inDegrees=yes

Units are S.I. units (second, meters, Newtons, ...)
Angles are in degrees.

endheader
time	floatyaw	floatroll	floatpitch	floatx	floaty	floatz	pro_sup_l	deviation_l	flexion_l	cmc_flexion_l	cmc_abduction_l	mp_flexion_l	ip_flexion_l	2mcp_flexion_l	2mcp_abduction_l	2pm_flexion_l	2md_flexion_l	3mcp_flexion_l	3mcp_abduction_l	3pm_flexion_l	3md_flexion_l	4mcp_flexion_l	4mcp_abduction_l	4pm_flexion_l	4md_flexion_l	5mcp_flexion_l	5mcp_abduction_l	5pm_flexion_l	5md_flexion_l
0.005000	-160.147433	-5.066637	-73.570646	-0.056941	-0.107526	-0.082124	111.222119	32.793697	-14.414652	1.699812	35.724900	-24.670282	-49.806596	35.923780	14.185759	58.874439	54.503832	50.535899	6.519061	60.131276	36.708632	47.684556	-5.713373	63.585821	46.743966	29.081475	-14.399766	78.069718	61.300835
0.015000	-160.147433	-5.066637	-73.570646	-0.056819	-0.104296	-0.081913	110.436296	32.722835	-14.892579	1.714500	35.531130	-25.066998	-50.228091	38.056631	14.491732	57.663097	54.462822	52.022284	6.567566	59.512726	36.319840	49.158623	-5.824538	63.066566	46.690606	30.426918	-14.476486	77.659887	62.033195
0.025000	-160.147433	-5.066637	-73.570646	-0.056711	-0.100595	-0.081847	109.609594	32.637301	-15.382499	1.717848	35.415353	-25.509972	-50.643282	40.461568	14.755837	56.209809	54.157468	53.715523	6.611315	58.687553	35.884575	50.835960	-5.940500	62.331193	46.622647	31.946324	-14.524668	77.110387	62.783726
0.035000	-160.147433	-5.066637	-73.570646	-0.056664	-0.096887	-0.081911	108.726931	32.523690	-15.724915	1.688656	35.357806	-26.104491	-51.171525	42.962204	14.987668	54.638445	53.687452	55.515528	6.632397	57.730853	35.358306	52.643574	-6.056092	61.336095	46.544151	33.505679	-14.538992	76.465220	63.485215
0.045000	-160.147433	-5.066637	-73.570646	-0.056671	-0.093683	-0.082068	107.822002	32.352313	-15.816758	1.620559	35.302781	-26.907482	-51.875840	45.273082	15.189098	53.144011	53.142351	57.223677	6.622718	56.774210	34.740385	54.390272	-6.162993	60.154647	46.470724	34.884130	-14.526322	75.820911	64.085690
0.055000	-160.147433	-5.066637	-73.570646	-0.056667	-0.091361	-0.082268	106.950886	32.097478	-15.641322	1.507982	35.196207	-27.872444	-52.702388	47.119527	15.356576	51.915824	52.584239	58.626341	6.587612	55.952734	34.081596	55.848960	-6.252064	58.948258	46.424760	35.868291	-14.502646	75.276398	64.563339
0.065000	-160.147433	-5.066637	-73.570646	-0.056561	-0.090041	-0.082459	106.166065	31.755931	-15.257448	1.340132	35.017167	-28.850771	-53.483521	48.343359	15.485062	51.057318	52.046036	59.577956	6.541998	55.345715	33.460695	56.846752	-6.316555	57.890179	46.420705	36.337596	-14.483032	74.881632	64.923052
0.075000	-160.147433	-5.066637	-73.570646	-0.056279	-0.089573	-0.082605	105.501701	31.351885	-14.758494	1.103624	34.783764	-29.657259	-54.012420	48.946399	15.572457	50.555554	51.542750	60.046851	6.502050	54.954365	32.948628	57.324019	-6.354577	57.094543	46.454325	36.303476	-14.472867	74.624575	65.181984
0.085000	-160.147433	-5.066637	-73.570646	-0.055807	-0.089633	-0.082702	104.970846	30.926501	-14.228755	0.789606	34.531368	-30.160560	-54.143652	49.062935	15.622589	50.310434	51.084923	60.109165	6.477716	54.723784	32.580447	57.340665	-6.369534	56.587357	46.503157	35.889833	-14.466794	74.458344	65.356017
0.095000	-160.147433	-5.066637	-73.570646	-0.055196	-0.089867	-0.082776	104.568258	30.519433	-13.719563	0.401087	34.276256	-30.341446	-53.853745	48.887854	15.644926	50.193695	50.683378	59.903359	6.470029	54.582570	32.346165	57.035430	-6.368473	56.320744	46.535625	35.270783	-14.455133	74.337220	65.454393
0.105000	-160.147433	-5.066637	-73.570646	-0.054532	-0.090015	-0.082868	104.273791	30.153620	-13.249015	-0.041269	33.983945	-30.288100	-53.228832	48.599061	15.650979	50.100117	50.343253	59.571901	6.473431	54.471104	32.201267	56.563735	-6.359437	56.208792	46.521764	34.597823	-14.432052	74.232723	65.481048
0.115000	-160.147433	-5.066637	-73.570646	-0.053892	-0.089966	-0.083010	104.057182	29.831064	-12.815631	-0.496789	33.561625	-30.140985	-52.400093	48.304437	15.649663	49.971198	50.055790	59.214897	6.480414	54.349951	32.089783	56.043159	-6.349099	56.163549	46.440594	33.948683	-14.399454	74.127667	65.437181
0.125000	-160.147433	-5.066637	-73.570646	-0.053310	-0.089742	-0.083203	103.887383	29.540223	-12.413858	-0.909614	32.886672	-30.025020	-51.477076	48.026648	15.644366	49.792796	49.798580	58.869524	6.485417	54.197420	31.969070	55.525824	-6.341364	56.120709	46.283563	33.316605	-14.364786	74.005412	65.322327
0.135000	-160.147433	-5.066637	-73.570646	-0.052771	-0.089441	-0.083424	103.745247	29.268979	-12.043810	-1.222311	31.864066	-30.003850	-50.518223	47.722131	15.632928	49.579429	49.547180	58.516386	6.486449	54.007387	31.826018	55.001500	-6.336970	56.052597	46.056007	32.637974	-14.335642	73.848817	65.135640
0.145000	-160.147433	-5.066637	-73.570646	-0.052229	-0.089171	-0.083639	103.632227	29.014614	-11.712821	-1.393282	30.482713	-30.071362	-49.544036	47.318959	15.609875	49.357905	49.290457	58.104142	6.484667	53.790285	31.678872	54.422321	-6.333915	55.968639	45.777473	31.838112	-14.315569	73.649107	64.879449
0.155000	-160.147433	-5.066637	-73.570646	-0.051640	-0.089000	-0.083822	103.567395	28.785135	-11.430499	-1.408190	28.834061	-30.174850	-48.569684	46.755077	15.569558	49.157165	49.038138	57.579731	6.482827	53.572799	31.565476	53.734412	-6.328536	55.905001	45.479249	30.869937	-14.303514	73.415481	64.563890
0.165000	-160.147433	-5.066637	-73.570646	-0.050985	-0.088946	-0.083967	103.572745	28.592377	-11.201567	-1.278556	27.077741	-30.251596	-47.627970	46.003246	15.509037	49.004560	48.814706	56.912883	6.483496	53.391590	31.524598	52.903558	-6.317092	55.907456	45.197377	29.729778	-14.296181	73.177149	64.208980
0.175000	-160.147433	-5.066637	-73.570646	-0.050279	-0.088987	-0.084085	103.655919	28.442401	-11.021143	-1.030113	25.374826	-30.259181	-46.768207	45.078026	15.429898	48.924026	48.644128	56.108145	6.487691	53.281163	31.579175	51.928108	-6.297360	56.013208	44.962615	28.450797	-14.290862	72.975460	63.841843
0.185000	-160.147433	-5.066637	-73.570646	-0.049557	-0.089085	-0.084195	103.801748	28.329681	-10.875144	-0.690897	23.830233	-30.187856	-46.036646	44.028143	15.338374	48.931377	48.536214	55.203021	6.494466	53.260696	31.728149	50.838782	-6.269694	56.237045	44.791789	27.085711	-14.286658	72.849148	63.490024
0.195000	-160.147433	-5.066637	-73.570646	-0.048860	-0.089200	-0.084316	103.977338	28.238189	-10.745507	-0.287060	22.475007	-30.055108	-45.455617	42.921094	15.243685	49.026837	48.483173	54.255462	6.501595	53.325921	31.948677	49.689125	-6.237154	56.565652	44.684382	25.690944	-14.283657	72.818874	63.174060
0.205000	-160.147433	-5.066637	-73.570646	-0.048221	-0.089308	-0.084459	104.146100	28.147635	-10.617364	0.154768	21.288246	-29.891017	-45.016270	41.825980	15.155310	49.190481	48.466889	53.326545	6.506868	53.449987	32.205968	48.541194	-6.204730	56.961773	44.625075	24.317000	-14.281233	72.878019	62.902904
0.215000	-160.147433	-5.066637	-73.570646	-0.047652	-0.089396	-0.084629	104.281279	28.040526	-10.484367	0.606038	20.234197	-29.724416	-44.688525	40.798680	15.080407	49.385813	48.471083	52.464521	6.509175	53.593326	32.465586	47.450519	-6.177910	57.376656	44.590943	23.003197	-14.277223	72.994404	62.675154
0.225000	-160.147433	-5.066637	-73.570646	-0.047148	-0.089466	-0.084824	104.371714	27.906521	-10.349624	1.040518	19.289061	-29.575474	-44.440506	39.872908	15.022370	49.570309	48.491467	51.695450	6.508740	53.718411	32.703051	46.454370	-6.160978	57.765453	44.561298	21.774586	-14.268832	73.122198	62.486630
0.235000	-160.147433	-5.066637	-73.570646	-0.046694	-0.089531	-0.085038	104.418772	27.743238	-10.222354	1.441424	18.447829	-29.454626	-44.254704	39.059802	14.980773	49.706634	48.539146	51.023203	6.506526	53.802842	32.907560	45.567238	-6.155574	58.098864	44.526694	20.641746	-14.254435	73.218103	62.340031
0.245000	-160.147433	-5.066637	-73.570646	-0.046275	-0.089606	-0.085266	104.428928	27.554638	-10.112451	1.805013	17.716400	-29.364521	-44.131031	38.354644	14.952450	49.770277	48.634752	50.437194	6.503332	53.844986	33.079826	44.784360	-6.160129	58.367335	44.492096	19.603828	-14.234738	73.255071	62.248415
0.255000	-160.147433	-5.066637	-73.570646	-0.045883	-0.089702	-0.085500	104.407794	27.348527	-10.025590	2.137494	17.098736	-29.302129	-44.075619	37.744703	14.933173	49.754869	48.794001	49.921938	6.499265	53.860660	33.226950	44.089483	-6.170516	58.579079	44.471270	18.652012	-14.212497	73.230089	62.226750
0.265000	-160.147433	-5.066637	-73.570646	-0.045520	-0.089827	-0.085731	104.358599	27.134192	-9.960899	2.447986	16.586506	-29.260410	-44.084111	37.212754	14.919330	49.676625	49.011172	49.462571	6.493869	53.874018	33.357930	43.461577	-6.181694	58.755227	44.475459	17.770633	-14.191251	73.165019	62.275451
0.275000	-160.147433	-5.066637	-73.570646	-0.045188	-0.089979	-0.085953	104.284217	26.920613	-9.912184	2.742721	16.155823	-29.230273	-44.132586	36.737160	14.908938	49.573766	49.252113	49.045325	6.486674	53.907558	33.481417	42.878793	-6.189560	58.923499	44.504177	16.938067	-14.173924	73.099011	62.369095
0.285000	-160.147433	-5.066637	-73.570646	-0.044891	-0.090151	-0.086159	104.189872	26.715432	-9.872183	3.023376	15.772815	-29.203072	-44.183978	36.294134	14.901559	49.494728	49.465695	48.656887	6.477689	53.974735	33.604840	42.322088	-6.192124	59.109892	44.544622	16.132310	-14.161892	73.072203	62.462580
0.295000	-160.147433	-5.066637	-73.570646	-0.044626	-0.090335	-0.086347	104.084260	26.524660	-9.837557	3.288521	15.405502	-29.172927	-44.205928	35.865116	14.897286	49.476620	49.610261	48.286508	6.467565	54.076466	33.733367	41.780597	-6.189638	59.329419	44.579649	15.341785	-14.154646	73.106156	62.514210
0.305000	-160.147433	-5.066637	-73.570646	-0.044388	-0.090526	-0.086517	103.978353	26.352864	-9.811391	3.535335	15.035430	-29.138056	-44.186931	35.445156	14.895515	49.526094	49.678222	47.930340	6.457456	54.201682	33.868514	41.256533	-6.183908	59.579951	44.598022	14.574329	-14.149997	73.192207	62.510171
0.315000	-160.147433	-5.066637	-73.570646	-0.044174	-0.090718	-0.086667	103.882384	26.203337	-9.801223	3.760027	14.662334	-29.100778	-44.138923	35.044833	14.894347	49.616852	49.700030	47.593810	6.448664	54.331670	34.007480	40.764753	-6.177322	59.843518	44.599669	13.855400	-14.144704	73.296997	62.471371
0.325000	-160.147433	-5.066637	-73.570646	-0.043981	-0.090909	-0.086797	103.802170	26.077825	-9.813653	3.957837	14.299654	-29.066149	-44.085157	34.682730	14.891101	49.707007	49.722981	47.288862	6.442187	54.447075	34.144159	40.324961	-6.171995	60.095311	44.593246	13.214048	-14.135476	73.383234	62.436650
0.335000	-160.147433	-5.066637	-73.570646	-0.043808	-0.091097	-0.086906	103.736548	25.975880	-9.849191	4.124386	13.964609	-29.039477	-44.043436	34.373507	14.883707	49.763883	49.780346	47.027279	6.438267	54.534963	34.271485	39.950677	-6.169168	60.315211	44.589210	12.665759	-14.120179	73.431633	62.435731
0.345000	-160.147433	-5.066637	-73.570646	-0.043658	-0.091278	-0.086991	103.677769	25.894500	-9.900874	4.258564	13.669126	-29.023773	-44.017122	34.120050	14.872129	49.778486	49.873579	46.814407	6.436173	54.592859	34.383932	39.642117	-6.168970	60.495122	44.593957	12.204330	-14.098810	73.448862	62.472444
0.355000	-160.147433	-5.066637	-73.570646	-0.043529	-0.091450	-0.087054	103.615419	25.828759	-9.957459	4.364842	13.415834	-29.018555	-43.998385	33.913759	14.858841	49.762642	49.977466	46.646715	6.434400	54.628129	34.479066	39.386874	-6.170581	60.639256	44.608079	11.807119	-14.073601	73.458353	62.527111
